<?xml version="1.0" encoding="UTF-8" standalone="no"?> <svg width="512" height="512" viewBox="0 0 512 512" fill="none" xmlns="http://www.w3.org/2000/svg">
<path d="M476.62 92.95C486.79 82.78 493.74 70.45 496.18 58.23C498.86 44.84 495.92 33.06 487.93 25.08C479.94 17.08 468.16 14.15 454.77 16.82C442.55 19.26 430.22 26.21 420.06 36.38C407.3 49.13 399.82 64.98 399.54 79.51L256 223.06L112.46 79.51C112.18 64.98 104.7 49.13 91.95 36.38C81.78 26.21 69.45 19.26 57.23 16.82C43.84 14.14 32.06 17.08 24.08 25.07C16.08 33.06 13.14 44.84 15.82 58.23C18.26 70.45 25.21 82.78 35.38 92.94C48.13 105.7 63.98 113.18 78.51 113.46L222.06 257L24.07 454.99C21.8116 457.212 20.0155 459.859 18.7852 462.779C17.5549 465.698 16.9149 468.832 16.902 472C16.8891 475.169 17.5036 478.308 18.71 481.237C19.9165 484.167 21.691 486.829 23.9312 489.069C26.1715 491.309 28.8331 493.084 31.7626 494.29C34.692 495.496 37.8314 496.111 40.9995 496.098C44.1677 496.085 47.3019 495.445 50.2215 494.215C53.141 492.985 55.7881 491.188 58.01 488.93L256 290.94L453.99 488.93C456.212 491.188 458.859 492.985 461.779 494.215C464.698 495.445 467.832 496.085 471 496.098C474.169 496.111 477.308 495.496 480.237 494.29C483.167 493.084 485.829 491.309 488.069 489.069C490.309 486.829 492.084 484.167 493.29 481.237C494.496 478.308 495.111 475.169 495.098 472C495.085 468.832 494.445 465.698 493.215 462.779C491.985 459.859 490.188 457.212 487.93 454.99L289.94 257L433.49 113.46C448.02 113.18 463.87 105.7 476.62 92.95ZM46.69 477.61C45.1915 479.108 43.1592 479.95 41.04 479.95C38.9208 479.95 36.8885 479.108 35.39 477.61C33.8915 476.112 33.0497 474.079 33.0497 471.96C33.0497 469.841 33.8915 467.808 35.39 466.31L233.37 268.31L244.69 279.63L46.69 477.61ZM476.61 466.31C478.108 467.808 478.95 469.841 478.95 471.96C478.95 474.079 478.108 476.112 476.61 477.61C475.112 479.108 473.079 479.95 470.96 479.95C468.841 479.95 466.808 479.108 465.31 477.61L87.41 99.72C86.598 98.913 85.6231 98.2885 84.5505 97.8884C83.4778 97.4883 82.3322 97.3218 81.19 97.4C70.39 98.17 57.18 92.12 46.7 81.63C38.73 73.67 33.34 64.25 31.51 55.1C30.59 50.48 29.86 41.91 35.39 36.38C40.92 30.85 49.48 31.59 54.1 32.51C63.25 34.34 72.67 39.73 80.64 47.7C91.12 58.18 97.16 71.39 96.4 82.19C96.3195 83.3324 96.485 84.4787 96.8852 85.5517C97.2854 86.6247 97.9111 87.5994 98.72 88.41L476.61 466.31ZM430.81 97.4C429.668 97.3218 428.522 97.4883 427.449 97.8884C426.377 98.2885 425.402 98.913 424.59 99.72L278.63 245.69L267.31 234.37L413.28 88.41C414.089 87.5994 414.715 86.6247 415.115 85.5517C415.515 84.4787 415.68 83.3324 415.6 82.19C414.84 71.39 420.88 58.18 431.37 47.7C439.33 39.73 448.75 34.34 457.9 32.51C462.52 31.59 471.09 30.86 476.62 36.39C482.15 41.92 481.41 50.48 480.49 55.1C478.66 64.25 473.27 73.67 465.3 81.63V81.64C454.82 92.12 441.61 98.17 430.81 97.4Z" fill="black"/>
</svg>
